<?xml version="1.0" encoding="UTF-8"?>
<svg version="1.1" xmlns="http://www.w3.org/2000/svg" width="400" height="400">
<path d="M0 0 C0.89912109 -0.01224609 1.79824219 -0.02449219 2.72460938 -0.03710938 C11.52890697 -0.05620763 18.83660449 1.4807506 26.75 5.3125 C27.87535156 5.85132813 29.00070313 6.39015625 30.16015625 6.9453125 C31.41119141 7.56019531 31.41119141 7.56019531 32.6875 8.1875 C32.6875 8.8475 32.6875 9.5075 32.6875 10.1875 C33.47125 10.435 34.255 10.6825 35.0625 10.9375 C38.12691457 12.39674503 38.30475761 13.23764956 39.6875 16.1875 C40.59822266 16.61675781 40.59822266 16.61675781 41.52734375 17.0546875 C48.56329353 20.74442608 53.04564558 30.31921647 55.49926758 37.59448242 C57.47792337 44.36581257 58.20024491 50.58337994 58.125 57.625 C58.11670166 58.63344971 58.10840332 59.64189941 58.09985352 60.6809082 C57.9308225 68.127296 57.06513949 74.46228902 53.6875 81.1875 C53.20152344 82.18652344 52.71554688 83.18554688 52.21484375 84.21484375 C47.58602711 92.8925071 41.01514277 100.79091162 32.6875 106.1875 C31.6975 106.1875 30.7075 106.1875 29.6875 106.1875 C29.6875 106.8475 29.6875 107.5075 29.6875 108.1875 C28.0375 108.5175 26.3875 108.8475 24.6875 109.1875 C25.14071328 111.25113112 25.60029106 113.31336507 26.0625 115.375 C26.31773437 116.52355469 26.57296875 117.67210937 26.8359375 118.85546875 C27.57601623 122.06978056 27.57601623 122.06978056 28.65527344 124.55371094 C29.70931434 127.24316061 30.40693359 129.84652062 31.0546875 132.66015625 C31.29856201 133.71412598 31.54243652 134.7680957 31.79370117 135.85400391 C32.04740479 136.97468262 32.3011084 138.09536133 32.5625 139.25 C32.82716064 140.41450684 33.09182129 141.57901367 33.36450195 142.77880859 C34.14693582 146.24662395 34.91961971 149.71643554 35.6875 153.1875 C35.89197754 154.1067627 36.09645508 155.02602539 36.30712891 155.97314453 C43.11933876 186.97198884 51.10641008 228.8468484 34.6875 258.1875 C34.23761719 259.02152344 33.78773438 259.85554688 33.32421875 260.71484375 C32.13591076 262.8872716 30.92471061 265.04266358 29.6875 267.1875 C31.21890625 267.31705078 31.21890625 267.31705078 32.78125 267.44921875 C50.63490008 269.11633936 68.11122012 273.05680877 85.43652344 277.60009766 C88.15571047 278.30968161 90.87865426 279.00405398 93.6015625 279.69921875 C95.69282034 280.23654342 97.78396652 280.77430288 99.875 281.3125 C100.86830322 281.56636475 101.86160645 281.82022949 102.88500977 282.08178711 C103.82401123 282.32550049 104.7630127 282.56921387 105.73046875 282.8203125 C106.56602295 283.03574707 107.40157715 283.25118164 108.26245117 283.47314453 C110.81446927 284.2249018 113.22045504 285.1955361 115.6875 286.1875 C117.55871892 286.65272017 119.43037477 287.11632688 121.30517578 287.56689453 C126.30820587 288.87020489 131.20803202 290.53275547 136.125 292.125 C137.20587891 292.47240234 138.28675781 292.81980469 139.40039062 293.17773438 C145.50852128 295.14463394 151.60365784 297.14675799 157.6875 299.1875 C157.6875 299.5175 157.6875 299.8475 157.6875 300.1875 C78.57562755 300.48715331 78.57562755 300.48715331 42.14111328 296.54736328 C37.05838815 296.01774806 31.96811388 295.60253063 26.875 295.1875 C18.5877828 294.4908655 10.32490957 293.6336 2.0625 292.6875 C0.49858521 292.50960937 0.49858521 292.50960937 -1.09692383 292.328125 C-6.25687505 291.72353627 -11.36166985 291.00959925 -16.48046875 290.12109375 C-24.64003462 288.8476848 -32.75879601 288.74957143 -41 288.75 C-41.79453583 288.74826782 -42.58907166 288.74653564 -43.40768433 288.74475098 C-55.42765482 288.75626073 -66.05033529 289.70053086 -77.3125 294.1875 C-79.35388661 294.91745036 -81.39552263 295.6467039 -83.4375 296.375 C-84.27152344 296.69339844 -85.10554688 297.01179688 -85.96484375 297.33984375 C-89.36304558 298.56681512 -92.79102854 299.39018571 -96.3125 300.1875 C-95.0705393 296.74822421 -93.75509716 293.93542181 -91.3125 291.1875 C-90.6525 291.1875 -89.9925 291.1875 -89.3125 291.1875 C-89.10882813 290.630625 -88.90515625 290.07375 -88.6953125 289.5 C-86.78998383 286.31368765 -84.11575459 284.3752385 -81.1875 282.1875 C-80.59855957 281.74325684 -80.00961914 281.29901367 -79.40283203 280.84130859 C-75.23567803 277.75228123 -71.15512131 275.10005277 -66.3125 273.1875 C-65.48492187 272.85363281 -64.65734375 272.51976562 -63.8046875 272.17578125 C-51.64114413 267.51482232 -39.6544464 265.61111246 -26.75 264.625 C-24.57840594 264.45739779 -22.40731235 264.28672141 -20.23683167 264.10523987 C-18.29194488 263.94265166 -16.3460599 263.79213554 -14.40014648 263.64233398 C-11.15079071 263.38845769 -11.15079071 263.38845769 -8.3125 261.1875 C-7.9825 260.1975 -7.6525 259.2075 -7.3125 258.1875 C-6.55066406 257.45789063 -5.78882813 256.72828125 -5.00390625 255.9765625 C-1.88273971 252.74214608 -0.16747496 249.58208859 1.75 245.5625 C2.09506592 244.84956787 2.44013184 244.13663574 2.7956543 243.40209961 C11.33990556 225.49533702 13.19958727 208.31116291 13.07861328 188.66064453 C13.06262797 185.58710608 13.07849908 182.51490343 13.09765625 179.44140625 C13.11519489 162.38363421 11.94775953 145.26983761 7.31640625 128.78125 C6.23257773 124.31129884 5.94906104 119.76932794 5.6875 115.1875 C4.89988281 115.22230469 4.11226563 115.25710937 3.30078125 115.29296875 C-7.95674237 115.57274153 -18.55196953 114.07552302 -28.3125 108.1875 C-29.26125 107.630625 -30.21 107.07375 -31.1875 106.5 C-42.15937291 98.38081405 -49.86149397 90.14083593 -54.3125 77.1875 C-54.56475342 76.53982666 -54.81700684 75.89215332 -55.0769043 75.22485352 C-57.23626364 69.397471 -57.82272373 64.19239719 -57.75 58 C-57.74170166 57.08234863 -57.73340332 56.16469727 -57.72485352 55.21923828 C-57.34922929 39.96702347 -51.83628938 27.31264877 -41.3125 16.1875 C-40.6525 16.1875 -39.9925 16.1875 -39.3125 16.1875 C-39.3125 15.5275 -39.3125 14.8675 -39.3125 14.1875 C-37.32560269 12.83471885 -35.32504782 11.50181695 -33.3125 10.1875 C-32.9825 9.5275 -32.6525 8.8675 -32.3125 8.1875 C-30.9925 8.1875 -29.6725 8.1875 -28.3125 8.1875 C-28.3125 7.5275 -28.3125 6.8675 -28.3125 6.1875 C-26.44105305 5.36684931 -24.56515664 4.5563416 -22.6875 3.75 C-21.64335937 3.29753906 -20.59921875 2.84507813 -19.5234375 2.37890625 C-13.07534451 -0.01363434 -6.79312134 0.00480759 0 0 Z " fill="#F94F70" transform="translate(169.3125,49.8125)"/>
</svg>
